<svg viewBox="0 0 64 64" xmlns="http://www.w3.org/2000/svg"><rect width="64" height="64" rx="12" fill="#F2A93B"/><path d="M1540 -899 1524 -833Q1481 -829 1413.0 -813.0Q1345 -797 1294 -751Q1269 -728 1234.0 -679.5Q1199 -631 1150 -563Q1113 -512 1053.5 -434.0Q994 -356 945 -306Q982 -246 1022.0 -196.0Q1062 -146 1096 -123Q1131 -99 1200.5 -83.5Q1270 -68 1317 -66L1300 0H916L802 -181Q757 -141 712.5 -104.0Q668 -67 608 -34Q548 0 490.0 17.5Q432 35 369 35Q217 35 117.5 -51.0Q18 -137 18 -285Q18 -438 123.5 -556.5Q229 -675 448 -788Q402 -875 376.5 -941.0Q351 -1007 351 -1079Q351 -1164 384.0 -1233.0Q417 -1302 473 -1352Q526 -1399 603.0 -1426.0Q680 -1453 758 -1453Q874 -1453 950.0 -1389.5Q1026 -1326 1026 -1216Q1026 -1092 942.5 -999.0Q859 -906 649 -806Q723 -669 774.0 -579.0Q825 -489 906 -360Q958 -419 1000.0 -476.5Q1042 -534 1086 -607Q1114 -654 1129.5 -693.0Q1145 -732 1145 -757Q1145 -783 1104.5 -800.0Q1064 -817 989 -833L1005 -899ZM893 -1213Q893 -1287 854.5 -1328.5Q816 -1370 743 -1370Q648 -1370 590.0 -1302.0Q532 -1234 532 -1139Q532 -1074 555.0 -1008.5Q578 -943 619 -863Q764 -934 828.5 -1017.5Q893 -1101 893 -1213ZM764 -236Q680 -374 610.0 -494.5Q540 -615 479 -731Q365 -670 302.0 -571.5Q239 -473 239 -353Q239 -236 299.5 -167.5Q360 -99 470 -99Q550 -99 625.0 -135.0Q700 -171 764 -236Z" fill="#322720" transform="translate(11.059 51.059) scale(0.026882)"/></svg>